<?xml version="1.0" standalone="no"?>
<!DOCTYPE svg PUBLIC "-//W3C//DTD SVG 20010904//EN"
 "http://www.w3.org/TR/2001/REC-SVG-20010904/DTD/svg10.dtd">
<svg version="1.0" xmlns="http://www.w3.org/2000/svg"
 width="260.000000pt" height="260.000000pt" viewBox="0 0 260.000000 260.000000"
 preserveAspectRatio="xMidYMid meet">
<metadata>
Created by potrace 1.14, written by Peter Selinger 2001-2017
</metadata>
<g transform="translate(0.000000,260.000000) scale(0.100000,-0.100000)"
fill="#000000" stroke="none">
<path d="M1085 2584 c-479 -83 -865 -415 -1020 -876 -46 -138 -63 -254 -63
-421 3 -588 398 -1094 973 -1247 44 -11 103 -24 130 -28 85 -12 355 -8 425 7
36 7 74 15 84 17 149 29 406 163 534 278 41 38 52 44 53 29 0 -10 2 -90 2
-178 l2 -160 198 -3 197 -2 0 650 0 650 -615 0 -615 0 0 -199 0 -199 335 2
c184 0 335 -3 335 -8 0 -22 -95 -147 -152 -201 -89 -84 -102 -93 -193 -141
-246 -130 -530 -133 -776 -9 -327 166 -509 523 -455 895 20 138 106 314 209
426 292 320 767 372 1116 123 30 -22 55 -38 56 -37 2 2 62 84 134 182 98 136
128 183 120 192 -20 25 -172 117 -253 154 -87 40 -183 73 -256 89 -25 5 -58
13 -75 16 -62 14 -349 13 -430 -1z"/>
</g>
</svg>
